<svg enable-background="new 0 0 256 256" viewBox="0 0 256 256" xmlns="http://www.w3.org/2000/svg" xmlns:xlink="http://www.w3.org/1999/xlink"><linearGradient id="a" gradientUnits="userSpaceOnUse" x1="11.1379" x2="245.5302" y1="10.6499" y2="245.0422"><stop offset="0" stop-color="#5e72e4"/><stop offset="1" stop-color="#778aff"/></linearGradient><path clip-rule="evenodd" d="m36.4.2h183.8c19.7 0 35.7 16 35.7 35.7v183.8c0 19.7-16 35.7-35.7 35.7h-183.8c-19.7 0-35.7-16-35.7-35.7v-183.8c0-19.7 16-35.7 35.7-35.7z" fill="url(#a)" fill-rule="evenodd"/><g fill="#fff"><path d="m128.3 32.6c-43.9 0-79.4 35.6-79.4 79.4 0 35.3 23.1 65.2 55 75.6l9.9-40.1c-14-5.7-23.8-19.4-23.8-35.5 0-21.2 17.2-38.3 38.3-38.3 21.2 0 38.3 17.2 38.3 38.3 0 16-9.8 29.7-23.8 35.5l9.9 40.1c31.9-10.3 55-40.2 55-75.6.1-43.8-35.5-79.4-79.4-79.4z"/><path d="m48.5 234.8c-2.3 0-4.3-.3-6.1-.9-1.7-.6-3.3-1.6-4.7-3s-2.5-2.8-3.3-4.2-1.3-2.9-1.6-4.4-.4-3.2-.4-4.9c0-2.3.3-4.3.8-5.9.5-1.7 1.1-3.1 1.8-4.3s1.8-2.4 3.1-3.6 2.8-2.1 4.4-2.8 3.5-1.1 5.7-1.1c2 0 3.8.3 5.6.9 1.7.6 3.3 1.5 4.7 2.7s2.6 2.6 3.5 4.4c1 1.7 1.6 3.4 1.9 5s.4 3.2.4 4.8c-.1 2.5-.4 4.7-1 6.6s-1.3 3.5-2.2 4.7-1.9 2.3-3.2 3.2c-1.2.9-2.7 1.7-4.3 2.2-1.3.3-3.1.6-5.1.6zm-.5-7.2c1.1.1 2.3-.1 3.4-.4 1.1-.4 2.2-1.1 3.2-2.1s1.6-2.3 1.9-3.8.5-2.9.4-4.3c0-1.9-.3-3.4-.7-4.6s-1-2.2-1.6-3-1.4-1.5-2.3-2-1.9-.8-3.1-.9c-1.1-.1-2.2.1-3.2.4-1 .4-1.9.9-2.7 1.5s-1.5 1.5-2.2 2.5c-.6 1-1 2.1-1.1 3.2s-.2 2.1-.2 3c0 1.2.1 2.4.4 3.6.2 1.2.7 2.3 1.3 3.4.6 1 1.5 1.8 2.7 2.4 1.2.7 2.4 1 3.8 1.1z"/><path d="m77 243.9h-7.2v-32.8h7.2v2c.3-.3.7-.6 1.1-.9s.9-.5 1.6-.7 1.3-.3 2-.3c1.4 0 2.7.4 4 1.1 1.3.8 2.3 1.8 3.2 3 .8 1.3 1.4 2.6 1.8 4.1.3 1.5.5 2.8.5 4.1s-.2 2.7-.7 4.1c-.5 1.7-1.4 3.1-2.5 4.3s-2.3 1.9-3.5 2.2-2.3.4-3.1.4c-1.6 0-2.7-.3-3.3-.8l-1-.7v10.9zm0-18.1v1.7c.2.5.5 1 .9 1.3.3.4 1.1.6 2.1.6 1.1 0 1.9-.3 2.5-.9.5-.5.8-1.3 1-2.3.2-1.1.3-2.2.3-3.5s-.1-2.4-.4-3.3c-.3-.8-.7-1.5-1.2-2.1-.6-.6-1.3-.9-2.1-.8-.5 0-1.1.2-1.7.6s-1 .9-1.2 1.6l-.2.6z"/><path d="m103.3 224.3v.6c0 .2.1.7.1 1.4.1.7.3 1.5.7 2.3s.8 1.3 1.2 1.6c.5.3.9.3 1.5.3.4-.1.9-.2 1.3-.5s.7-.7.9-1.1.4-.8.5-1.2l.2-1h7.4c-.1.5-.2 1.1-.3 1.7-.1.7-.5 1.4-1 2.3-.5.8-1.1 1.6-1.9 2.2-.7.6-1.7 1.1-3 1.5s-2.7.6-4.3.5-3.2-.4-4.6-.9c-1.5-.6-2.6-1.3-3.5-2.3s-1.5-2.2-1.9-3.5-.6-2.9-.6-4.6c0-1 .1-1.9.3-2.9s.5-2 .9-2.9 1-1.9 1.7-2.8 1.9-1.8 3.4-2.6 3.2-1.2 4.9-1.1c.7 0 1.7.2 2.8.5 1.2.3 2.3 1 3.5 2s2.1 2.3 2.6 3.8c.6 1.5.9 2.8.9 4l.1 3h-13.8zm6.7-4.1c0-.6-.1-1.1-.2-1.6s-.2-1-.5-1.6-.6-.9-.9-1.2c-.3-.2-.8-.4-1.3-.4-.6 0-1.1.1-1.6.4s-.9.8-1.3 1.6c-.4.7-.6 1.3-.6 1.8l-.1.9h6.5z"/><path d="m142.4 234.4h-7.2v-13.1c0-1-.1-1.8-.2-2.4s-.4-1.1-.9-1.6c-.5-.4-1.2-.6-2.1-.6-.6.1-1.1.3-1.6.6s-.8.8-1 1.3-.3 1.3-.3 2.3v13.3h-7.2v-23.3h7.2v1.3c.3-.1.6-.3 1.1-.5.4-.2 1-.4 1.6-.6s1.5-.2 2.5-.2c1 .1 1.9.2 2.7.5s1.5.7 2.3 1.3c.7.6 1.4 1.3 1.8 2.1.5.8.8 1.7 1 2.5s.3 1.9.3 3.1z"/><path d="m163.5 221.2-3.7 13.3h-5.6l-6.7-23.3h7.1l2.5 11.1 3.4-11.1h6.1l3.2 11 2.3-11h7.1l-6.3 23.3h-5.6z"/><path d="m184.4 211.1h6.7v4.3c.3-.5.8-1 1.2-1.5.5-.5 1.3-1.1 2.4-1.7 1.2-.6 2.1-.9 2.9-.9l3.8-.3v6.2c-.7-.1-1.4-.1-2-.2-.6 0-1.5 0-2.5.1-1.1.1-2.1.5-3.1 1s-1.6 1-1.9 1.6l-.8 1.3v13.4h-6.7z"/><path d="m218.3 211.1h5.2v4.6h-5.2v10.9c0 .8.1 1.4.3 1.8s.5.6.8.8c.4.1 1 .2 1.9.2h2.3l-.1 5h-5.1c-.7 0-1.4 0-2.1-.1s-1.4-.3-2.1-.7-1.3-.9-1.8-1.4c-.5-.6-.8-1.2-1-2-.2-.7-.3-1.7-.3-2.8v-11.6h-4.8v-4.6h4.8v-7.6h7.2z"/></g></svg>