<svg height="200" viewBox="0 0 1024 1024" width="200" xmlns="http://www.w3.org/2000/svg"><path d="m484.430769 51.2-248.123077 303.261538h-118.153846c-43.323077 0-78.769231 35.446154-78.769231 78.769231v157.538462c0 43.323077 35.446154 78.769231 78.769231 78.769231h118.153846l248.123077 303.261538c25.6 25.6 66.953846 7.876923 66.953846-27.569231v-866.461538c0-35.446154-43.323077-53.169231-66.953846-27.569231zm397.784616 460.8 96.492307-96.492308c7.876923-7.876923 7.876923-19.692308 0-27.56923l-27.56923-27.569231c-7.876923-7.876923-19.692308-7.876923-27.569231 0l-96.492308 96.492307-96.492308-96.492307c-7.876923-7.876923-19.692308-7.876923-27.56923 0l-27.569231 27.569231c-7.876923 7.876923-7.876923 19.692308 0 27.56923l96.492308 96.492308-96.492308 96.492308c-7.876923 7.876923-7.876923 19.692308 0 27.56923l27.569231 27.569231c7.876923 7.876923 19.692308 7.876923 27.56923 0l96.492308-96.492307 96.492308 96.492307c7.876923 7.876923 19.692308 7.876923 27.569231 0l27.56923-27.569231c7.876923-7.876923 7.876923-19.692308 0-27.56923z" fill="#fff"/></svg>