<svg height="200" viewBox="0 0 1024 1024" width="200" xmlns="http://www.w3.org/2000/svg"><path d="m484.430769 51.2-248.123077 303.261538h-118.153846c-43.323077 0-78.769231 35.446154-78.769231 78.769231v157.538462c0 43.323077 35.446154 78.769231 78.769231 78.769231h118.153846l248.123077 303.261538c25.6 25.6 66.953846 7.876923 66.953846-27.569231v-866.461538c0-35.446154-43.323077-53.169231-66.953846-27.569231zm354.461539 120.123077c-7.876923-7.876923-19.692308-7.876923-27.569231 0l-27.569231 27.569231c-7.876923 7.876923-7.876923 21.661538 0 27.56923 74.830769 72.861539 122.092308 173.292308 122.092308 285.538462s-47.261538 212.676923-122.092308 285.538462c-7.876923 7.876923-7.876923 19.692308 0 27.56923l27.569231 27.569231c7.876923 7.876923 19.692308 7.876923 27.569231 0 88.615384-84.676923 145.723077-206.769231 145.723077-340.676923s-55.138462-256-145.723077-340.676923zm-124.061539 126.030769c-7.876923-7.876923-19.692308-7.876923-27.569231 0l-27.56923 27.569231c-7.876923 7.876923-7.876923 19.692308 0 27.569231 43.323077 39.384615 68.923077 96.492308 68.923077 159.507692 0 63.015385-27.569231 120.123077-70.892308 159.507692-7.876923 7.876923-7.876923 19.692308 0 27.569231l27.569231 27.569231c7.876923 7.876923 19.692308 7.876923 27.56923 0 57.107692-53.169231 94.523077-129.969231 94.523077-216.615385 0-82.707692-35.446154-159.507692-92.553846-212.676923z" fill="#fff"/></svg>